<?xml version="1.0" encoding="UTF-8"?> <svg xmlns="http://www.w3.org/2000/svg" xmlns:xlink="http://www.w3.org/1999/xlink" width="209" height="44" viewBox="0 0 1111.4 231.66"><defs><style>.cls-1{fill:#97f7eb;}.cls-2{fill:#a9aff8;}.cls-3{fill:url(#linear-gradient);}.cls-4{fill:url(#linear-gradient-2);}.cls-5{fill:url(#linear-gradient-3);}.cls-6{fill:url(#linear-gradient-4);}.cls-7{fill:url(#linear-gradient-5);}.cls-8{fill:url(#linear-gradient-6);}.cls-9{fill:url(#linear-gradient-7);}.cls-10{fill:#0f253f;}</style><linearGradient id="linear-gradient" x1="1334" y1="742.83" x2="1347.23" y2="742.83" gradientTransform="translate(-1251 -627)" gradientUnits="userSpaceOnUse"><stop offset="0" stop-color="#daf1ff"></stop><stop offset="1" stop-color="#9ad8ff"></stop></linearGradient><linearGradient id="linear-gradient-2" x1="1320.77" y1="698.25" x2="1334" y2="698.25" xlink:href="#linear-gradient"></linearGradient><linearGradient id="linear-gradient-3" x1="1320.77" y1="788.32" x2="1334" y2="788.32" xlink:href="#linear-gradient"></linearGradient><linearGradient id="linear-gradient-4" x1="1372.88" y1="775.61" x2="1386.11" y2="775.61" xlink:href="#linear-gradient"></linearGradient><linearGradient id="linear-gradient-5" x1="1386.11" y1="715.11" x2="1399.35" y2="715.11" xlink:href="#linear-gradient"></linearGradient><linearGradient id="linear-gradient-6" x1="1372.88" y1="697.51" x2="1386.11" y2="697.51" xlink:href="#linear-gradient"></linearGradient><linearGradient id="linear-gradient-7" x1="1386.11" y1="793.21" x2="1399.35" y2="793.21" xlink:href="#linear-gradient"></linearGradient></defs><title>HKlogoAsset 2</title><g id="Layer_2" data-name="Layer 2"><g id="Layer_1-2" data-name="Layer 1"><rect class="cls-1" width="231.66" height="231.66" rx="44.04"></rect><rect class="cls-2" x="15.11" y="15.11" width="201.44" height="201.44" rx="28.93"></rect><rect class="cls-3" x="83" y="33.58" width="13.23" height="164.49"></rect><polygon class="cls-4" points="83 33.58 83 100.61 69.77 108.91 69.77 33.58 83 33.58"></polygon><polygon class="cls-5" points="69.77 124.57 83 132.88 83 198.07 69.77 198.07 69.77 124.57"></polygon><polygon class="cls-6" points="135.12 99.14 135.12 198.07 121.88 198.07 121.88 107.45 135.12 99.14"></polygon><polygon class="cls-7" points="148.35 33.58 148.35 142.65 135.12 134.34 135.12 33.58 148.35 33.58"></polygon><polygon class="cls-8" points="135.12 99.14 121.88 107.45 121.88 33.58 135.12 33.58 135.12 99.14"></polygon><polygon class="cls-9" points="148.35 142.65 148.35 198.07 135.12 198.07 135.12 134.34 148.35 142.65"></polygon><polygon class="cls-10" points="83 100.61 83 132.88 69.77 124.57 57.3 116.74 69.77 108.91 83 100.61"></polygon><polygon class="cls-10" points="135.12 67.9 135.12 99.14 121.88 107.45 107.07 116.74 121.88 126.04 121.88 157.28 96.23 141.19 96.23 92.3 121.88 76.2 135.12 67.9"></polygon><polygon class="cls-10" points="171.8 76.12 148.35 90.84 148.35 59.59 171.8 44.87 171.8 76.12"></polygon><polygon class="cls-10" points="174.36 190.22 148.35 173.9 135.12 165.59 135.12 134.34 148.35 142.65 174.36 158.97 174.36 190.22"></polygon><path class="cls-2" d="M280.1,64h14.64v45.83h52.2V64h14.64V172.8H346.94V121.88h-52.2V172.8H280.1Z"></path><path class="cls-2" d="M383.86,64.59h12.73V81.14H383.86Zm0,36.92h12.73V172.8H383.86Z"></path><path class="cls-2" d="M422.68,107.87q7.65-7.64,21.64-7.64,15.29,0,22.28,7,6.36,6.36,6.37,14H460.24q-.64-4.45-2.55-6.37c-2.54-2.54-7.22-3.82-14-3.82a13.8,13.8,0,0,0-10.19,3.82,9.76,9.76,0,0,0-3.18,7,6.1,6.1,0,0,0,1.91,4.45q2.53,2.55,15.91,5.73c5.51,1.27,10.19,2.55,14,3.82a21.55,21.55,0,0,1,7.64,4.45,16.57,16.57,0,0,1,5.09,12.1q0,7.63-6.37,14-7.63,7.63-23.55,7.64t-23.55-7.64A21.56,21.56,0,0,1,415,150.52h12.74c.41,3.82,1.48,6.58,3.18,8.27q4.44,4.47,13.36,4.46,10.81,0,14.64-3.82a8.62,8.62,0,0,0,2.55-6.36q0-2.55-3.18-5.73-2.55-2.53-8.28-3.82c-7.64-1.69-13.36-3.19-17.18-4.46q-7-1.91-10.19-5.09Q417,128.24,417,121.88A19.07,19.07,0,0,1,422.68,107.87Z"></path><path class="cls-2" d="M492.06,64h12.73v50.29q10.81-14,23.55-14,13.38,0,19.74,6.37a20.9,20.9,0,0,1,6.36,15.28V172.8H541.71V125.06a15.55,15.55,0,0,0-4.45-11.46q-3.19-3.18-8.92-3.18-7,0-12.73,5.73-7,7-10.82,19.73V172.8H492.06Z"></path><path class="cls-2" d="M581.18,107.24q7-7,20.37-7,15.9,0,22.91,7a20.14,20.14,0,0,1,6.36,14.64V162q0,7,5.1,10.82H620.64c-1.7-1.69-2.55-4.46-2.55-8.28q-9.54,9.55-24.18,9.55-12.1,0-18.46-6.37a18.29,18.29,0,0,1-5.73-13.36,19.83,19.83,0,0,1,5.73-14.64q6.34-6.36,17.82-8.28a88.19,88.19,0,0,0,13.37-3.18q8.26-1.91,11.45-3.82a12.24,12.24,0,0,0-3.81-8.91q-3.82-3.83-10.83-3.82-8.91,0-12.73,3.82a15.78,15.78,0,0,0-3.81,7h-14A30,30,0,0,1,581.18,107.24Zm36.91,29.28a55.64,55.64,0,0,1-7,1.9q-10.83,2.57-16.55,3.82a16.22,16.22,0,0,0-7.63,3.82,9.73,9.73,0,0,0-3.19,7,10.37,10.37,0,0,0,3.19,7.63c1.27,1.28,4,1.91,8.27,1.91q10.82,0,17.82-7c3-3,4.67-5.09,5.09-6.36Z"></path><path class="cls-2" d="M649.92,64h12.73v45.83Q670.92,99.61,683,99.6q12.72,0,21,8.27,10.18,10.2,10.19,29.28,0,18.47-10.19,28.65-8.26,8.28-21.64,8.27-14,0-19.73-10.18v8.91H649.92Zm18.46,53.47q-5.73,5.73-5.73,15.91V141A21.53,21.53,0,0,0,669,156.88a18.31,18.31,0,0,0,13.36,5.73,14.73,14.73,0,0,0,10.82-4.45q7-7,7-21,0-14.62-6.37-21a15.88,15.88,0,0,0-11.46-5.1Q674.74,111.05,668.38,117.42Z"></path><path class="cls-2" d="M783.59,64h14.64V113.6L847.88,64h18.46l-43.29,43.29L867,172.8H849.79l-36.92-55.38-14.64,14.64V172.8H783.59Z"></path><path class="cls-2" d="M880.34,64.59h12.73V81.14H880.34Zm0,36.92h12.73V172.8H880.34Z"></path><path class="cls-2" d="M919.17,76.68H931.9v24.83h21.64v10.18H931.9v41.38a9.7,9.7,0,0,0,3.18,7c1.69,1.7,4.46,2.54,8.27,2.54a29.06,29.06,0,0,0,15.92-4.45v12.09A31.41,31.41,0,0,1,944,174.07q-12.74,0-18.46-5.73-6.36-6.36-6.36-14V111.69H903.89V101.51h15.28Z"></path><path class="cls-2" d="M978.36,107.24q7-7,20.37-7,15.9,0,22.92,7a20.18,20.18,0,0,1,6.36,14.64V162q0,7,5.09,10.82h-15.27c-1.7-1.69-2.55-4.46-2.55-8.28q-9.54,9.55-24.19,9.55-12.09,0-18.46-6.37a18.32,18.32,0,0,1-5.72-13.36,19.86,19.86,0,0,1,5.72-14.64q6.36-6.36,17.83-8.28a87.75,87.75,0,0,0,13.36-3.18q8.26-1.91,11.46-3.82a12.21,12.21,0,0,0-3.82-8.91q-3.81-3.83-10.82-3.82c-5.95,0-10.18,1.27-12.73,3.82a15.89,15.89,0,0,0-3.82,7h-14A30,30,0,0,1,978.36,107.24Zm36.92,29.28a55.64,55.64,0,0,1-7,1.9q-10.83,2.57-16.55,3.82a16.26,16.26,0,0,0-7.64,3.82,9.72,9.72,0,0,0-3.18,7,10.36,10.36,0,0,0,3.18,7.63c1.28,1.28,4,1.91,8.28,1.91q10.82,0,17.82-7c3-3,4.66-5.09,5.09-6.36Z"></path><path class="cls-2" d="M1047.11,64h12.73v45.83q8.27-10.17,20.37-10.18,12.72,0,21,8.27,10.18,10.2,10.19,29.28,0,18.47-10.19,28.65-8.28,8.28-21.64,8.27-14,0-19.73-10.18v8.91h-12.73Zm18.46,53.47q-5.73,5.73-5.73,15.91V141a21.56,21.56,0,0,0,6.36,15.91,18.33,18.33,0,0,0,13.37,5.73,14.73,14.73,0,0,0,10.82-4.45q7-7,7-21,0-14.62-6.36-21a15.88,15.88,0,0,0-11.46-5.1C1074.48,111.05,1069.8,113.18,1065.57,117.42Z"></path></g></g></svg> 